<svg width="168" height="94" viewBox="0 0 168 94" fill="none" xmlns="http://www.w3.org/2000/svg">
<g clip-path="url(#clip0_887_6)">
<path d="M12.7468 88.0718C12.7468 88.2106 12.7205 88.3307 12.6828 88.3832C11.6858 88.492 11.6933 88.9985 11.7272 90.4806C11.7347 90.807 11.7422 91.1747 11.7422 91.5987C11.7422 91.7976 11.8401 91.9852 12.0357 92.1502C9.43593 94.3377 5.6623 94.6116 2.84054 92.8106C0.417592 91.2648 -0.534281 88.5971 0.289672 85.6705C0.948083 83.3329 2.76906 81.577 5.15815 80.9729C5.80527 80.8078 6.39219 80.744 6.92269 80.744C8.07773 80.744 8.98445 81.0517 9.75573 81.3181C10.2787 81.4982 10.7377 81.652 11.1516 81.6633C11.2607 82.8039 11.4036 83.8057 11.5767 84.6349L10.986 84.7362C10.4593 82.9765 9.56385 82.0085 8.08901 81.5957C6.62922 81.1868 5.2823 81.3481 4.19122 82.0572C3.23183 82.6838 2.48312 83.7382 2.08055 85.0289C1.13244 88.0793 2.17461 91.9214 5.56072 93.0657C7.15971 93.606 9.12366 93.3021 10.1282 92.3566L10.1433 92.3416V92.3228C10.1433 91.745 10.1508 91.2648 10.1583 90.8408C10.1997 88.5745 10.1997 88.5258 8.48406 88.3794C8.44643 88.3269 8.4201 88.2068 8.4201 88.068C8.4201 87.9329 8.44643 87.8091 8.48406 87.7566H12.6828C12.7205 87.8166 12.7468 87.9367 12.7468 88.0718ZM29.5419 83.7794C30.7421 85.8768 30.7007 88.8597 29.4366 91.0284C28.3379 92.9119 26.4605 93.9512 24.1467 93.9512C20.5574 93.9512 17.9539 91.2985 17.9539 87.6403C17.9539 83.6068 20.3618 81.532 22.6154 80.9354C23.1685 80.7891 23.7216 80.7178 24.2633 80.7178C26.4304 80.7178 28.432 81.8359 29.5419 83.7794ZM28.59 86.8861C28.417 84.4961 27.3184 82.5825 25.6441 81.7721C24.316 81.1267 23.0631 81.1568 22.0323 81.8546C20.4935 82.894 19.5867 85.3028 19.7711 87.8579C19.9442 90.2592 21.0352 92.1202 22.7659 92.9569C23.4093 93.2684 24.0338 93.4259 24.6208 93.4259C25.2491 93.4259 25.836 93.2458 26.3665 92.8894C27.8752 91.8651 28.7706 89.4525 28.59 86.8861ZM44.5913 90.5031C43.8576 93.1258 42.1608 93.0995 40.3699 93.077C40.1969 93.0732 40.02 93.0732 39.8432 93.0732C39.2488 93.0732 38.8612 92.6643 38.8612 92.0339C38.8612 90.1204 38.8499 88.5595 38.8424 87.3026C38.8048 82.0798 38.8048 81.7683 39.7642 81.6183C40.0426 81.5732 40.242 81.577 40.3887 81.5807C40.5167 81.5845 40.6032 81.5845 40.6408 81.547C40.6747 81.517 40.686 81.4419 40.686 81.2918C40.686 81.1568 40.6672 81.063 40.6258 81.0104C39.3767 81.0104 38.4097 81.0029 37.7024 80.9992C36.0921 80.9879 35.5504 80.9842 35.4601 81.0817C35.4413 81.1042 35.4413 81.138 35.445 81.2018C35.445 81.228 35.4488 81.2618 35.4488 81.2956C35.4488 81.4457 35.4638 81.517 35.4939 81.5507C35.5316 81.5845 35.6143 81.5845 35.746 81.5845C35.889 81.5845 36.0921 81.5807 36.3706 81.622C36.807 81.6895 37.1268 81.9972 37.2058 82.4212C37.2886 82.8677 37.3713 91.9927 37.1193 92.593C36.8559 93.2233 36.1749 93.2308 35.509 93.2308C35.4714 93.2834 35.445 93.3884 35.445 93.5047C35.445 93.621 35.4714 93.7261 35.509 93.7786H44.6552C44.8697 92.7168 45.039 91.6437 45.1594 90.5931C44.9788 90.5031 44.7907 90.4768 44.5913 90.5031ZM49.9752 93.7186C49.9489 93.6923 49.9489 93.6436 49.9489 93.5573V93.5047C49.9489 93.2271 49.9601 93.2271 50.2348 93.2271C50.3326 93.2271 50.453 93.2271 50.611 93.2121C51.8488 93.1033 51.8451 92.7093 51.7962 87.9067C51.7849 86.7135 51.7698 85.2277 51.7698 83.4042C51.7698 81.9559 51.5968 81.5807 50.0128 81.577C49.9752 81.5245 49.9489 81.4157 49.9489 81.2956C49.9489 81.1755 49.9752 81.063 50.0128 81.0142C51.0926 81.0142 52.0031 81.0104 52.7781 81.0067C56.5969 80.9879 57.1838 80.9879 58.5157 81.547C61.6874 82.8827 63.3127 86.1695 62.4699 89.5426C61.3751 93.9287 57.0973 93.8537 53.6623 93.7936C53.2823 93.7861 52.9249 93.7824 52.5787 93.7824C52.0144 93.7824 51.5704 93.7861 51.2168 93.7899C50.3702 93.7899 50.0504 93.7936 49.9752 93.7186ZM53.5005 92.7281L53.5419 92.7055L53.5005 92.7281C53.7601 93.1258 54.7759 93.2083 55.5849 93.2083C58.6926 93.2083 59.9717 91.7037 60.4947 90.4431C61.4955 88.0343 60.5323 84.5261 59.0011 82.999C57.7557 81.7571 55.1785 81.2581 54.0197 81.7383C53.5946 81.9147 53.3688 82.2111 53.3688 82.59C53.3688 85.3741 53.3613 87.3551 53.3575 88.7997C53.3463 92.4917 53.3463 92.4917 53.5005 92.7281ZM69.1707 93.7824C69.5206 93.7786 69.9683 93.7749 70.5326 93.7749C71.0932 93.7749 71.5334 93.7786 71.8833 93.7824C72.7261 93.7899 73.0421 93.7936 73.1174 93.7186C73.1437 93.6923 73.1437 93.6436 73.1437 93.5535V93.501C73.1437 93.2233 73.1324 93.2233 72.8578 93.2233C72.76 93.2233 72.6396 93.2233 72.4815 93.2083C71.2588 93.0995 71.2625 92.7956 71.3039 87.6778C71.3115 86.5334 71.3265 85.1114 71.3265 83.4005C71.3265 81.9522 71.4996 81.577 73.0835 81.5732C73.1211 81.5207 73.1475 81.4119 73.1475 81.2918C73.1475 81.1718 73.1211 81.0592 73.0835 81.0104H67.9667C67.9291 81.063 67.9028 81.1718 67.9028 81.2918C67.9028 81.4119 67.9291 81.5207 67.9667 81.5732C69.5507 81.577 69.7237 81.9484 69.7237 83.4005C69.7237 85.1264 69.735 86.5559 69.7463 87.7078C69.7877 92.7956 69.7915 93.0995 68.5687 93.2083C68.4107 93.2233 68.2903 93.2233 68.1925 93.2233C67.9178 93.2233 67.9065 93.2233 67.9065 93.501V93.5535C67.9065 93.6436 67.9065 93.6886 67.9329 93.7148C68.0043 93.7936 68.3242 93.7899 69.1707 93.7824ZM91.5453 81.592L91.7147 81.577C91.7523 81.5245 91.7786 81.4157 91.7786 81.2918C91.7786 81.1718 91.7523 81.063 91.7147 81.0104H87.3202C87.2826 81.063 87.2563 81.1718 87.2563 81.2956C87.2563 81.4157 87.2826 81.5282 87.3202 81.5807L87.4933 81.5995C89.1412 81.7758 89.1412 81.7758 89.0961 86.6835C89.0885 87.6478 89.0772 88.8484 89.0772 90.2667V90.3605C89.0772 90.6719 89.0772 90.8595 88.9644 90.8971C88.7311 90.9796 88.1969 90.278 85.6272 86.9274C84.5361 85.5016 83.0387 83.5506 81.0747 81.0179H78.4223C78.3809 81.0705 78.3621 81.1643 78.3621 81.2993C78.3621 81.5845 78.4148 81.5882 78.5916 81.6033C78.7835 81.6183 79.0732 81.637 79.4682 82.001L79.5359 82.061C80.0589 82.53 80.0589 82.53 80.0363 86.7773C80.0288 87.9179 80.0213 89.3362 80.0213 91.1559C80.0213 92.8856 79.709 93.0845 78.2643 93.2271C78.2229 93.2796 78.2003 93.3884 78.2003 93.5085C78.2003 93.6285 78.2266 93.7336 78.2643 93.7824H82.6587C82.6963 93.7298 82.7226 93.621 82.7226 93.5047C82.7226 93.3847 82.6963 93.2759 82.6587 93.2271C81.4284 93.1108 81.2553 92.9457 81.0522 92.4729C80.8114 91.9251 80.8753 84.7137 80.9318 84.3122C80.9506 84.1734 80.9995 84.0946 81.0747 84.0758C81.086 84.0721 81.1011 84.0721 81.1124 84.0721C81.2666 84.0721 81.4698 84.2935 81.8234 84.74C83.5729 86.9462 84.9199 88.6533 85.9056 89.9028C89.081 93.9287 89.1149 93.97 89.4986 93.9625H89.5438C89.9238 93.9625 89.9539 93.531 89.9539 93.3997C89.9539 91.0884 89.9351 89.2387 89.9163 87.7566C89.856 81.7496 89.8561 81.7496 91.5453 81.592ZM109.21 87.7641H105.011C104.973 87.8204 104.947 87.9405 104.947 88.0755C104.947 88.2144 104.973 88.3344 105.011 88.3869C106.753 88.5333 106.749 88.6608 106.696 90.7245C106.685 91.156 106.67 91.6925 106.67 92.3266V92.3453L106.655 92.3604C105.647 93.3059 103.686 93.6098 102.087 93.0695C98.7013 91.9214 97.6592 88.083 98.6073 85.0326C99.0098 83.7419 99.7586 82.6876 100.718 82.061C101.809 81.3519 103.156 81.1905 104.616 81.5995C106.091 82.0122 106.986 82.9803 107.513 84.74L108.103 84.6387C107.93 83.8057 107.787 82.8077 107.678 81.667C107.261 81.6558 106.805 81.502 106.282 81.3219C105.507 81.0555 104.604 80.7478 103.449 80.7478C102.919 80.7478 102.336 80.8116 101.685 80.9767C99.2958 81.5807 97.4786 83.3404 96.8164 85.6742C95.9887 88.6008 96.9443 91.2685 99.3673 92.8144C102.189 94.6116 105.963 94.3414 108.562 92.154C108.367 91.9889 108.269 91.8013 108.269 91.6024C108.269 91.1747 108.261 90.807 108.254 90.4843C108.22 89.0023 108.209 88.4995 109.21 88.3869C109.247 88.3344 109.274 88.2106 109.274 88.0755C109.274 87.9367 109.251 87.8166 109.21 87.7641ZM128.224 90.5031C127.728 92.2778 126.712 93.0695 124.936 93.0695C124.669 93.0695 124.428 93.077 124.218 93.0845C123.525 93.107 123.104 93.1183 122.833 92.8519C122.389 92.4166 122.408 91.261 122.453 88.1693C122.472 86.9161 122.494 85.3553 122.494 83.393C122.494 81.8471 122.758 81.5695 124.251 81.5695C124.289 81.517 124.315 81.4081 124.315 81.2881C124.315 81.168 124.289 81.0592 124.251 81.0067C123.002 81.0067 122.035 80.9992 121.328 80.9954C119.718 80.9842 119.176 80.9804 119.086 81.078C119.067 81.1005 119.067 81.1342 119.071 81.198C119.071 81.2243 119.074 81.2581 119.074 81.2918C119.074 81.4419 119.089 81.5132 119.12 81.547C119.157 81.5807 119.24 81.5807 119.372 81.5807C119.518 81.5807 119.718 81.577 119.996 81.6183C120.433 81.6858 120.752 81.9935 120.831 82.4174C120.914 82.8639 120.997 91.9889 120.745 92.5892C120.482 93.2196 119.801 93.2271 119.135 93.2271C119.097 93.2796 119.071 93.3847 119.071 93.501C119.071 93.6173 119.097 93.7223 119.135 93.7749H128.281C128.495 92.713 128.665 91.64 128.785 90.5894C128.612 90.5031 128.424 90.4768 128.224 90.5031ZM134.854 93.7824C135.204 93.7786 135.651 93.7749 136.216 93.7749C136.776 93.7749 137.216 93.7786 137.566 93.7824C138.409 93.7899 138.725 93.7936 138.8 93.7186C138.827 93.6923 138.827 93.6436 138.827 93.5535V93.501C138.827 93.2233 138.815 93.2233 138.541 93.2233C138.443 93.2233 138.323 93.2233 138.165 93.2083C136.942 93.0995 136.946 92.7956 136.987 87.6778C136.994 86.5334 137.01 85.1114 137.01 83.4005C137.01 81.9522 137.183 81.577 138.767 81.5732C138.804 81.5207 138.83 81.4119 138.83 81.2918C138.83 81.1718 138.804 81.0592 138.767 81.0104H133.65C133.612 81.063 133.586 81.1718 133.586 81.2918C133.586 81.4119 133.612 81.5207 133.65 81.5732C135.234 81.577 135.407 81.9484 135.407 83.4005C135.407 85.1264 135.418 86.5559 135.429 87.7078C135.471 92.7956 135.474 93.0995 134.252 93.2083C134.094 93.2233 133.973 93.2233 133.875 93.2233C133.601 93.2233 133.59 93.2233 133.59 93.501V93.5535C133.59 93.6436 133.59 93.6886 133.616 93.7148C133.687 93.7936 134.003 93.7899 134.854 93.7824ZM152.409 80.9504C151.995 81.0104 151.954 81.0104 148.116 81.0067C147.029 81.0067 145.633 81.0067 143.838 81.0067C143.797 81.0592 143.778 81.153 143.778 81.2843C143.778 81.5657 143.801 81.5657 144.056 81.5657C144.173 81.5657 144.335 81.5657 144.546 81.5957C145.268 81.6971 145.606 81.9072 145.606 83.3967C145.606 85.0476 145.618 86.4396 145.625 87.554C145.663 92.7843 145.667 93.0958 144.44 93.2046C144.282 93.2196 144.162 93.2196 144.064 93.2196C143.793 93.2196 143.778 93.2196 143.778 93.4972C143.778 93.5272 143.778 93.5573 143.774 93.5835C143.77 93.6473 143.77 93.6811 143.789 93.7036C143.88 93.7974 144.41 93.7936 145.983 93.7824C146.701 93.7786 147.683 93.7711 148.966 93.7711C149.004 93.7186 149.03 93.6135 149.03 93.4972C149.03 93.3809 149.004 93.2759 148.966 93.2233C148.244 93.2233 147.83 93.1708 147.57 92.9119C147.16 92.4992 147.172 91.6062 147.194 89.4488C147.202 88.8484 147.209 88.1693 147.209 87.3701V87.3251H147.254C147.499 87.3251 147.728 87.3251 147.939 87.3251C150.479 87.3176 150.881 87.3139 150.968 88.7096C151.081 88.7959 151.412 88.7959 151.525 88.7096L151.521 88.6083C151.476 87.0625 151.472 86.8561 151.525 85.2878C151.472 85.2465 151.378 85.2277 151.246 85.2277C151.002 85.2277 150.968 85.3966 150.934 85.6967C150.885 86.1019 150.817 86.6535 149.82 86.6535H147.205V86.6085C147.205 85.6967 147.19 84.9501 147.179 84.3497C147.149 82.8152 147.138 82.1811 147.42 81.8997C147.631 81.6895 148.003 81.7008 148.613 81.7158C148.804 81.7196 149.023 81.7271 149.267 81.7271C151.284 81.7271 151.875 82.4249 152.349 83.892C152.548 83.8882 152.725 83.862 152.875 83.8095L152.872 83.7869C152.635 81.8584 152.477 81.063 152.409 80.9504ZM161.672 93.7899C163.007 93.7824 164.84 93.7749 167.278 93.7749C167.597 92.653 167.842 91.5687 168 90.5481C167.801 90.4431 167.597 90.4168 167.39 90.4656C166.623 93.1708 165.46 93.1445 163.147 93.092C162.793 93.0845 162.428 93.077 162.029 93.077C161.788 93.077 161.638 93.0282 161.529 92.9194C161.231 92.6192 161.239 91.8351 161.258 89.7452C161.265 89.1073 161.273 88.3119 161.273 87.3814V87.3364H161.318C161.551 87.3364 161.773 87.3364 161.976 87.3364C164.501 87.3289 164.896 87.3289 164.983 88.7209C165.095 88.8072 165.438 88.8072 165.551 88.7209L165.547 88.6196C165.502 87.0737 165.498 86.8674 165.551 85.299C165.498 85.2577 165.4 85.239 165.268 85.239C164.983 85.239 164.983 85.254 164.967 85.5129C164.964 85.5842 164.96 85.6705 164.945 85.7793C164.84 86.7023 164.384 86.6985 162.473 86.676C162.134 86.6723 161.754 86.6685 161.318 86.6685H161.273V86.6235C161.273 85.813 161.262 85.1264 161.25 84.5711C161.224 82.984 161.209 82.2636 161.532 81.9447C161.796 81.6858 162.255 81.7008 163.094 81.7233C163.395 81.7308 163.733 81.7421 164.132 81.7421C165.573 81.7421 165.957 82.4362 166.416 83.9108C166.619 83.9408 166.811 83.9108 166.992 83.8282C166.931 83.3667 166.642 81.3856 166.559 81.0217H157.906C157.864 81.0742 157.845 81.168 157.845 81.2993C157.845 81.5807 157.868 81.5807 158.124 81.5807C158.24 81.5807 158.402 81.5807 158.613 81.6108C159.335 81.7121 159.674 81.9222 159.674 83.4117C159.674 85.0626 159.685 86.4546 159.693 87.569C159.73 92.7993 159.734 93.1108 158.508 93.2196C158.35 93.2346 158.229 93.2346 158.131 93.2346C157.86 93.2346 157.845 93.2346 157.845 93.5122C157.845 93.5498 157.842 93.5798 157.838 93.6098C157.83 93.6586 157.827 93.6848 157.842 93.6998C157.936 93.8049 158.726 93.8011 161.672 93.7899Z" fill="black"/>
<path d="M75.6758 54.6524C67.5867 62.0964 58.1809 60.6256 60.3969 55.8793C62.8236 51.8758 70.7358 50.7915 75.578 50.6302C75.3823 51.1142 75.0663 51.692 74.8104 52.131C70.7283 52.3411 67.7109 52.8964 64.4602 54.9713C55.9235 60.4343 75.119 60.7194 79.3253 44.0453C68.6477 53.009 58.8769 45.5199 64.242 33.5471C62.801 31.9975 62.1991 30.3053 62.3533 28.6319C58.8543 33.2244 56.8528 38.5861 56.6195 43.9215C54.7985 19.9534 82.3163 5.55684 101.053 19.9609C90.4355 13.4737 75.4425 15.5786 65.525 25.0862C63.6664 26.8685 63.2563 29.5549 65.0584 31.975C68.5725 25.7091 75.0475 23.0414 79.8558 23.7505C88.1705 25.0375 87.8583 33.881 79.028 36.3349C75.4463 37.3479 70.8788 37.2129 67.4927 35.5357C67.6582 35.1305 67.8727 34.6577 68.1172 34.2037C68.7568 34.5527 69.4566 34.819 70.2091 35.0029C81.2064 37.6781 88.148 27.7577 81.0559 25.5628C77.192 24.3471 70.6643 26.5908 66.6612 35.0817C66.6537 35.0779 66.6462 35.0742 66.6424 35.0704C66.6424 35.0742 66.4317 35.5695 66.4317 35.5695C63.9486 41.7303 65.8598 47.6773 72.6659 45.9814C75.0889 45.3435 77.8279 43.7527 78.4524 42.2931C80.0928 38.4848 82.1282 38.9013 82.5759 40.3158C83.3848 42.4019 80.074 48.529 78.8362 50.6039L80.0326 50.5851C79.7956 51.298 78.9227 52.0372 78.0047 52.0372C77.3124 53.114 75.7247 54.6411 75.6758 54.6524ZM111.802 40.3721C111.55 45.4786 109.702 50.3713 106.836 54.4798C104.936 57.3651 102.069 56.6222 99.2807 55.324C98.5245 54.9713 91.8012 51.1892 91.4588 51.7408C92.2188 50.5101 94.6154 44.867 95.8269 42.2781C109.45 13.166 110.891 35.0217 97.8021 39.7192C97.5501 40.3233 97.3657 40.8861 97.2378 41.3514C104.002 39.5804 108.329 33.3145 108.743 29.146C109.063 25.938 106.252 24.0357 102.866 26.1256C98.9798 28.5231 97.1023 34.714 94.8525 40.3571C90.5408 40.7923 88.7951 38.785 88.7763 36.5075C89.5927 34.6202 86.3909 35.9559 87.1208 37.9558C88.1028 40.0344 90.601 41.6778 94.1376 41.7416C92.1172 45.82 90.4693 50.4951 88.2947 53.3316C85.4993 57.0799 81.752 58.607 79.5096 57.3088C77.0152 55.868 81.6015 52.5962 87.3014 53.1928C87.7905 52.5962 88.3549 51.8458 88.6935 51.1817C83.5805 50.6414 77.5231 52.4949 77.5231 55.913C77.5231 59.5413 84.0771 62.0251 90.1796 53.6543C90.9584 52.5925 100.334 57.9767 103.863 58.0892C95.4507 66.869 81.9627 70.5986 70.6154 65.8372C89.4535 76.4405 112.927 62.194 111.802 40.3721ZM100.135 12.4343C100.135 12.6745 100.225 12.8921 100.372 13.0609C99.435 13.8339 98.0128 14.9932 96.8164 14.7644C95.0067 13.8826 95.0481 9.69535 95.1497 7.68801C96.8126 7.78181 96.854 5.29045 95.2212 5.29045C93.9608 5.29045 93.5432 6.99013 94.6794 7.56419C88.8628 19.2743 85.3676 9.48524 84.7318 2.85162C86.3985 2.45765 86.1012 0.00756836 84.4007 0.00756836C82.7415 0.00756836 82.3916 2.36385 83.9981 2.82911C83.3735 9.34641 79.9197 19.3944 74.0467 7.56419C75.1792 6.99013 74.7653 5.29045 73.5049 5.29045C71.8721 5.29045 71.9247 7.78931 73.5764 7.68801C73.678 9.6991 73.7194 13.8826 71.9097 14.7644C70.7208 14.9895 69.3174 13.8564 68.3543 13.0609C68.896 12.4343 68.4446 11.4738 67.6281 11.4738C65.9802 11.4738 66.6875 14.164 68.1436 13.2485C71.8006 18.3738 75.4124 14.9257 74.2348 8.8774C78.2492 19.4469 85.0403 12.2317 84.1862 2.86663C84.4232 2.9004 84.3969 2.88914 84.5399 2.87413C83.7046 11.9241 90.4016 19.657 94.495 8.8774C93.3475 14.7644 96.8653 18.4564 100.586 13.2485C101.233 13.6575 102.065 13.1885 102.065 12.4381C102.065 11.1624 100.135 11.1586 100.135 12.4343Z" fill="url(#paint0_linear_887_6)"/>
</g>
<defs>
<linearGradient id="paint0_linear_887_6" x1="19.2635" y1="33.7009" x2="117.282" y2="35.2366" gradientUnits="userSpaceOnUse">
<stop stop-color="#CFAA27"/>
<stop offset="0.0154" stop-color="#DABC39"/>
<stop offset="0.0369" stop-color="#E4CE4B"/>
<stop offset="0.0593" stop-color="#EBD955"/>
<stop offset="0.0842" stop-color="#EDDD59"/>
<stop offset="0.1882" stop-color="#F4E86D"/>
<stop offset="0.2455" stop-color="#F4E86D"/>
<stop offset="0.31" stop-color="#EDDC60"/>
<stop offset="0.3996" stop-color="#E0C249"/>
<stop offset="0.543" stop-color="#CF9F2E"/>
<stop offset="0.6434" stop-color="#C99226"/>
<stop offset="0.7186" stop-color="#C89025"/>
<stop offset="0.7939" stop-color="#CA9729"/>
<stop offset="0.8728" stop-color="#D1A531"/>
<stop offset="0.9427" stop-color="#DDBE46"/>
<stop offset="1" stop-color="#EBD95C"/>
</linearGradient>
<clipPath id="clip0_887_6">
<rect width="168" height="94" fill="white"/>
</clipPath>
</defs>
</svg>
